# xmcd
#
# Track frame offsets: 
#        150
#        11487
#        24912
#        35028
#        54291
#        66442
#        78401
#        96289
#        123924
#        138118
#        152739
#        174450
#        193193
#        203810
#        214297
#        224305
#        241836
#        256392
#        269544
#        284569
#        296788
#
# Disc length: 4135 seconds
#
# Revision: 0
# Processed by: cddbd v1.5.2PL0 Copyright (c) Steve Scherf et al.
# Submitted via: ExactAudioCopy v0.99pb4
#
DISCID=3e102515
DTITLE=Martin Pyrker - Jubilee Joy
DYEAR=2012
DGENRE=Blues
TTITLE0=Hardtop Special
TTITLE1=Boogie Woogie Session
TTITLE2=Low Down Dog Blues
TTITLE3=Two Nineteen Blues
TTITLE4=Chicago Session
TTITLE5=Blues for Albert
TTITLE6=Feel Like Jumping
TTITLE7=O.B. Blues
TTITLE8=Indiana Avenue Stomp
TTITLE9=Drum The Boogie!
TTITLE10=Karina's Boogie Woogie
TTITLE11=Mr. Cook's Morning Blues
TTITLE12=Cow Cow Blues
TTITLE13=Babies Boogie
TTITLE14=Pinetop Blues
TTITLE15=Mostar Blues
TTITLE16=Sabine's Jive
TTITLE17=Boogie Woogie Storm
TTITLE18=Knockin' Myself Out
TTITLE19=Bugle Boogie
TTITLE20=Jubilee Joy
EXTD=
EXTT0=
EXTT1=
EXTT2=
EXTT3=
EXTT4=
EXTT5=
EXTT6=
EXTT7=
EXTT8=
EXTT9=
EXTT10=
EXTT11=
EXTT12=
EXTT13=
EXTT14=
EXTT15=
EXTT16=
EXTT17=
EXTT18=
EXTT19=
EXTT20=
PLAYORDER=
